<svg width="30" height="41" viewBox="0 0 40 51" fill="none" xmlns="http://www.w3.org/2000/svg">
<path d="M27.3207 0H2.67926C1.19956 0 0 1.20391 0 2.68899V38.0465C0 39.5316 1.19956 40.7355 2.67926 40.7355H27.3207C28.8004 40.7355 30 39.5316 30 38.0465V2.68899C30 1.20391 28.8004 0 27.3207 0ZM4.25329 30.4286V26.6033C4.25329 26.2977 4.50009 26.05 4.80459 26.05H8.616C8.9205 26.05 9.16729 26.2977 9.16729 26.6033V30.4286C9.16729 30.7342 8.9205 30.9818 8.616 30.9818H4.80459C4.50009 30.9818 4.25329 30.7341 4.25329 30.4286ZM4.25329 22.7242V18.899C4.25329 18.5934 4.50009 18.3457 4.80459 18.3457H8.616C8.9205 18.3457 9.16729 18.5934 9.16729 18.899V22.7242C9.16729 23.0298 8.9205 23.2775 8.616 23.2775H4.80459C4.50009 23.2775 4.25329 23.0297 4.25329 22.7242ZM21.961 37.2819H8.03903C7.06438 37.2819 6.27432 36.4889 6.27432 35.5108C6.27432 34.5326 7.06438 33.7396 8.03903 33.7396H21.961C22.9356 33.7396 23.7257 34.5326 23.7257 35.5108C23.7257 36.4889 22.9356 37.2819 21.961 37.2819ZM13.0943 26.0499H16.9057C17.2102 26.0499 17.457 26.2976 17.457 26.6032V30.4285C17.457 30.7341 17.2102 30.9818 16.9057 30.9818H13.0943C12.7898 30.9818 12.543 30.7341 12.543 30.4285V26.6032C12.543 26.2977 12.7898 26.0499 13.0943 26.0499ZM12.543 22.7242V18.899C12.543 18.5934 12.7898 18.3457 13.0943 18.3457H16.9057C17.2102 18.3457 17.457 18.5934 17.457 18.899V22.7242C17.457 23.0298 17.2102 23.2775 16.9057 23.2775H13.0943C12.7898 23.2775 12.543 23.0297 12.543 22.7242ZM25.1954 30.9818H21.384C21.0795 30.9818 20.8327 30.7342 20.8327 30.4286V26.6033C20.8327 26.2977 21.0795 26.05 21.384 26.05H25.1954C25.4999 26.05 25.7467 26.2977 25.7467 26.6033V30.4286C25.7467 30.7342 25.4999 30.9818 25.1954 30.9818ZM25.1954 23.2775H21.384C21.0795 23.2775 20.8327 23.0298 20.8327 22.7242V18.899C20.8327 18.5934 21.0795 18.3457 21.384 18.3457H25.1954C25.4999 18.3457 25.7467 18.5934 25.7467 18.899V22.7242C25.7467 23.0298 25.4999 23.2775 25.1954 23.2775ZM25.9412 13.2512C25.9412 14.296 25.0972 15.143 24.0562 15.143H5.94388C4.90279 15.143 4.05882 14.296 4.05882 13.2512V5.52259C4.05882 4.47781 4.90279 3.63078 5.94388 3.63078H24.0562C25.0972 3.63078 25.9412 4.47781 25.9412 5.52259V13.2512Z" fill="white"/>
</svg>
