<svg width="54" height="58" viewBox="0 0 54 58" fill="none" xmlns="http://www.w3.org/2000/svg">
<g filter="url(#filter0_d_22_118)">
<path d="M49.0754 23.7197C47.246 18.9156 45.069 14.9977 42.5444 11.9658L39.8966 15.2662C42.0557 17.8382 43.9364 21.2028 45.5627 25.3933C41.233 36.5634 35.0871 41.8695 26.6879 41.8695C24.1668 41.8695 21.8446 41.3856 19.7214 40.4178L16.8524 43.9939C19.8014 45.6912 23.0798 46.5399 26.6879 46.5399C36.6899 46.5399 44.1524 40.0467 49.0754 27.0603C49.2733 26.5381 49.3759 25.9676 49.3759 25.39C49.3759 24.8124 49.2733 24.242 49.0754 23.7197V23.7197ZM45.7672 2.92072L43.5487 0.152197C43.5101 0.103948 43.4642 0.0656721 43.4136 0.039557C43.3631 0.013442 43.3089 0 43.2542 0C43.1995 0 43.1453 0.013442 43.0948 0.039557C43.0442 0.0656721 42.9983 0.103948 42.9597 0.152197L37.2681 7.24346C34.1301 5.24556 30.6034 4.2466 26.6879 4.2466C16.6859 4.2466 9.22345 10.7398 4.3005 23.7262C4.10263 24.2485 4 24.8189 4 25.3965C4 25.9741 4.10263 26.5445 4.3005 27.0668C6.26725 32.2302 8.63505 36.369 11.4039 39.483L5.89708 46.3453C5.81906 46.4426 5.77524 46.5746 5.77524 46.7121C5.77524 46.8497 5.81906 46.9816 5.89708 47.079L8.11865 49.8481C8.19671 49.9454 8.30256 50 8.41293 50C8.5233 50 8.62915 49.9454 8.70721 49.8481L45.7672 3.65502C45.8059 3.60682 45.8366 3.54959 45.8576 3.48659C45.8785 3.42359 45.8893 3.35607 45.8893 3.28787C45.8893 3.21967 45.8785 3.15215 45.8576 3.08915C45.8366 3.02615 45.8059 2.96892 45.7672 2.92072ZM7.81318 25.3933C12.1481 14.2232 18.2939 8.91703 26.6879 8.91703C29.5262 8.91703 32.1068 9.52419 34.4481 10.7586L30.7897 15.3188C29.0571 14.1665 27.0733 13.7388 25.1309 14.0989C23.1885 14.459 21.3904 15.5877 20.0018 17.3186C18.6133 19.0494 17.7077 21.2908 17.4189 23.7119C17.13 26.1331 17.4731 28.6059 18.3975 30.7655L14.0564 36.1767C11.6537 33.5334 9.58252 29.9521 7.81318 25.3933ZM20.6513 25.3933C20.6522 24.2494 20.8696 23.122 21.2858 22.1025C21.7019 21.0831 22.3051 20.2004 23.0464 19.5261C23.7876 18.8518 24.646 18.405 25.5518 18.222C26.4576 18.0389 27.3853 18.1248 28.2595 18.4726L20.9277 27.6117C20.7439 26.8945 20.6507 26.1461 20.6513 25.3933V25.3933Z" fill="white"/>
<path d="M26.4791 32.658C26.299 32.658 26.1216 32.6477 25.9457 32.6275L23.197 36.0538C24.8502 36.843 26.6515 37.0184 28.383 36.5588C30.1145 36.0991 31.7021 35.0241 32.9539 33.4637C34.2057 31.9034 35.0681 29.9244 35.4369 27.7661C35.8056 25.6078 35.6649 23.3625 35.0318 21.3018L32.2831 24.728C32.2992 24.9473 32.3075 25.1685 32.3075 25.3929C32.3079 26.3471 32.1575 27.2921 31.8647 28.1738C31.5719 29.0554 31.1426 29.8565 30.6013 30.5313C30.06 31.206 29.4173 31.7411 28.71 32.106C28.0027 32.471 27.2446 32.6585 26.4791 32.658V32.658Z" fill="white"/>
</g>
<defs>
<filter id="filter0_d_22_118" x="0" y="0" width="53.3759" height="58" filterUnits="userSpaceOnUse" color-interpolation-filters="sRGB">
<feFlood flood-opacity="0" result="BackgroundImageFix"/>
<feColorMatrix in="SourceAlpha" type="matrix" values="0 0 0 0 0 0 0 0 0 0 0 0 0 0 0 0 0 0 127 0" result="hardAlpha"/>
<feOffset dy="4"/>
<feGaussianBlur stdDeviation="2"/>
<feComposite in2="hardAlpha" operator="out"/>
<feColorMatrix type="matrix" values="0 0 0 0 0 0 0 0 0 0 0 0 0 0 0 0 0 0 0.25 0"/>
<feBlend mode="normal" in2="BackgroundImageFix" result="effect1_dropShadow_22_118"/>
<feBlend mode="normal" in="SourceGraphic" in2="effect1_dropShadow_22_118" result="shape"/>
</filter>
</defs>
</svg>
