<svg width="163" height="156" viewBox="0 0 163 156" fill="none" xmlns="http://www.w3.org/2000/svg">
<g clip-path="url(#clip0_144_120)">
<path d="M66.3339 127.92C64.633 127.92 63.4991 129.48 63.4991 132.08C63.4991 134.16 64.633 136.24 66.9009 136.24C68.6017 136.24 69.7356 134.68 69.7356 132.08C69.7356 130 68.6017 127.92 66.3339 127.92ZM20.9774 127.92C20.9774 128.44 20.4104 129.48 20.4104 130L19.8435 132.6H22.6782L22.1113 130C21.5443 129.48 21.5443 128.96 20.9774 127.92ZM10.2052 127.92H9.07129V131.56H10.2052C11.9061 131.56 12.473 131.04 12.473 129.48C12.473 127.92 11.9061 127.92 10.2052 127.92ZM53.8609 127.92H52.7269V131.56H53.8609C55.5617 131.56 56.1287 131.04 56.1287 129.48C56.1287 127.92 54.9948 127.92 53.8609 127.92ZM78.8069 127.92H77.673V131.04H78.8069C80.5078 131.04 81.0748 130.52 81.0748 129.48C81.0748 128.44 79.9409 127.92 78.8069 127.92ZM163.85 37.9604L81.0748 0.520388C80.6021 0.247786 80.0715 0.0707798 79.5183 0.00118383C78.9652 -0.0684122 78.4022 -0.0289977 77.867 0.116797C77.3317 0.262592 76.8366 0.511413 76.4145 0.846655C75.9924 1.1819 75.6532 1.59585 75.4194 2.06089L75.4123 2.08039V2.60039L73.7114 5.20039L64.0732 23.4004H98.7709C103.718 23.4004 107.729 27.0794 107.729 31.6164V31.7269V151.32C108.296 150.8 108.863 150.28 108.863 149.76L165.558 43.1604C165.838 42.7227 166.017 42.237 166.083 41.7334C166.15 41.2298 166.103 40.719 165.945 40.2327C165.788 39.7464 165.523 39.295 165.168 38.9064C164.812 38.5177 164.374 38.2002 163.879 37.9734L163.857 37.9669L163.85 37.9604ZM65.2 95.1604C61.3926 93.9639 57.4202 93.2658 53.4002 93.0869L53.2939 93.0804V108.16C56.1932 106.964 58.7639 105.188 60.8179 102.962C62.8718 100.736 64.357 98.1172 65.1646 95.2969L65.2 95.1604ZM66.9009 62.9204C62.7486 64.313 58.36 65.0194 53.9388 65.0069L53.2655 65.0004H53.301V73.3204H68.6088C68.5599 69.7042 67.9612 66.1119 66.83 62.6474L66.9079 62.9204H66.9009ZM53.2939 46.2804V60.3204L53.8254 60.3269C57.9288 60.3269 61.8408 59.5599 65.3913 58.1754L65.2 58.2404C64.4621 55.516 63.0003 53.0016 60.9451 50.9215C58.8898 48.8414 56.3051 47.2603 53.4215 46.3194L53.2939 46.2804Z" fill="#B4CAE4"/>
<path d="M72.5702 92.0401C74.6254 93.0735 76.2129 94.6986 77.0846 96.6616L77.1059 96.7201C81.6542 91.9548 84.4315 85.9859 85.0362 79.6771L85.0433 79.56H74.2711C74.5564 83.8672 73.9529 88.1851 72.4923 92.287L72.5702 92.0466V92.0401ZM27.7807 100.88C29.5666 102.336 31.6218 103.558 33.8684 104.468L34.0172 104.52C32.451 102.57 31.1115 100.341 30.1194 97.955L30.0485 97.76C28.9937 98.5674 28.2119 99.634 27.7948 100.835L27.7807 100.88ZM73.1372 51.4801C71.0111 49.9526 68.6086 48.4121 66.114 46.9886L65.7668 46.8C67.7865 49.0425 69.5016 51.6166 70.7843 54.3986L70.8694 54.6C72.0033 54.6 73.1372 53.0401 73.1372 51.4801ZM66.9007 104.52C69.0905 103.565 70.9615 102.343 72.5702 100.88C72.4762 100.24 72.2253 99.628 71.8361 99.0898C71.447 98.5517 70.9299 98.1014 70.3237 97.773L70.3024 97.76C69.7213 100.354 68.5307 102.629 66.8723 104.553L66.9007 104.52ZM74.8381 73.84H85.6102C84.8665 67.4165 82.2982 61.2843 78.1618 56.056L78.2398 56.1601C77.1621 58.1762 75.3916 59.8115 73.201 60.814L73.1372 60.84C73.7041 65 74.2711 69.16 74.8381 73.84ZM68.6015 79.56H53.2937V87.36C58.0544 87.4704 62.7528 88.3803 67.1558 90.0445L66.9007 89.9601C67.9881 86.5909 68.5605 83.0996 68.6015 79.5861V79.56ZM33.4502 48.3601C31.365 49.0882 29.4379 50.1513 27.7594 51.4995L27.7807 51.4801C27.8226 52.0763 27.9941 52.6589 28.2849 53.1936C28.5758 53.7283 28.9802 54.2042 29.4744 54.5936L29.4815 54.6C30.3887 52.1885 31.7423 50.1085 33.4644 48.3405L33.4502 48.3601ZM27.7807 60.32C26.0193 59.2147 24.494 57.8223 23.2804 56.212L23.245 56.1601C18.6695 61.314 15.9045 67.6187 15.3147 74.243L15.3076 74.36H25.5128C25.6262 69.4723 26.4241 64.6182 27.887 59.9171L27.7807 60.32ZM47.0572 107.12V93.08C43.0552 93.482 39.1011 94.2152 35.2432 95.2705L35.7181 95.1601C36.4178 97.822 37.8 100.292 39.75 102.366C41.7 104.439 44.1614 106.056 46.9296 107.081L47.0572 107.12Z" fill="#B4CAE4"/>
<path d="M100.918 33.28V33.124C100.918 32.1263 100.513 31.1643 99.782 30.4253C99.051 29.6864 98.0464 29.2234 96.9636 29.1265H4.52847C4.41508 29.1135 4.28043 29.1135 4.14577 29.1135C3.56467 29.1148 2.99024 29.2272 2.45913 29.4435C1.92802 29.6598 1.45189 29.9752 1.06113 30.3697C0.670369 30.7642 0.373549 31.229 0.189608 31.7346C0.00566754 32.2402 -0.0613544 32.7754 -0.00718161 33.306V33.293V151.912C-0.00718161 154.18 1.99843 156.013 4.46469 156.013H96.3754C97.5489 155.938 98.6534 155.477 99.4864 154.715C100.32 153.954 100.825 152.942 100.911 151.866V151.853L100.918 33.28ZM9.63817 72.8C10.4934 63.9881 14.6894 55.73 21.4963 49.462C28.3031 43.1939 37.2902 39.3126 46.8943 38.493L47.0573 38.48V37.96H53.2938V38.48C58.6168 38.8641 63.8052 40.2061 68.5627 42.4293C73.3202 44.6525 77.5537 47.7133 81.0215 51.4371C84.4893 55.1609 87.1234 59.4747 88.7735 64.1322C90.4236 68.7897 91.0573 73.6997 90.6385 78.5818C90.2197 83.4639 88.7566 88.2225 86.3327 92.586C83.9087 96.9495 80.5714 100.832 76.5114 104.013C72.4513 107.194 67.748 109.61 62.6699 111.123C57.5919 112.636 52.2385 113.218 46.9156 112.834L47.0573 112.84C25.9594 111.131 9.54604 95.004 9.54604 75.3545C9.54604 74.4575 9.58147 73.5605 9.64525 72.683L9.63817 72.8ZM10.2051 133.64H9.07121V137.8H6.23643V125.84H10.2051C11.6311 125.695 13.062 126.071 14.188 126.887L14.1738 126.88C15.3077 127.4 15.3077 128.44 15.3077 129.48C15.2911 130.445 14.8874 131.371 14.1738 132.08C13.6914 132.572 13.1012 132.966 12.4418 133.234C11.7823 133.503 11.0685 133.641 10.3469 133.64H10.198H10.2051ZM23.8121 137.8L22.6782 134.68H19.2764L18.1425 137.8H15.3077L19.2764 125.84H23.2451L27.2138 137.8H23.8121ZM31.7495 137.8C30.5704 137.884 29.3871 137.699 28.3052 137.261L28.3477 137.28L28.9147 135.2C29.9937 135.63 31.1721 135.809 32.3448 135.72H32.3164C33.4503 135.72 34.0173 135.2 34.0173 134.68C34.0173 134.16 33.4503 133.64 31.7495 133.12C30.0486 132.08 28.3477 131.04 28.3477 129.48C28.3477 127.4 30.0486 125.84 33.4503 125.84C34.6294 125.756 35.8127 125.941 36.8946 126.38L36.8521 126.36L36.2851 128.44C35.4304 127.962 34.4182 127.777 33.4291 127.92H33.4503C32.3164 127.92 31.7495 128.44 31.7495 128.96C31.7495 129.48 32.3164 130 34.0173 130.52C35.9308 130.845 37.3694 132.34 37.419 134.154C37.419 136.234 35.7182 137.8 31.7495 137.8ZM42.5216 137.8C41.3426 137.884 40.1593 137.699 39.0774 137.261L39.1199 137.28V135.2C40.199 135.63 41.3774 135.809 42.55 135.72H42.5216C43.6556 135.72 44.7895 135.2 44.7895 134.68C44.7895 134.16 44.2225 133.64 42.5216 133.12C41.5899 133.042 40.7235 132.648 40.0928 132.014C39.462 131.38 39.1125 130.553 39.1128 129.695L39.1199 129.467V129.48C39.1199 127.4 40.8208 125.84 44.2225 125.84C45.4016 125.756 46.5849 125.941 47.6668 126.38L47.6243 126.36L47.0573 128.44C46.2026 127.962 45.1904 127.777 44.2013 127.92H44.2225C43.0886 127.92 42.5216 128.44 42.5216 128.96C42.5216 129.48 43.0886 130 44.7895 130.52C46.703 130.845 48.1416 132.34 48.1912 134.154C47.953 135.325 47.2218 136.37 46.1556 137.051C45.0895 137.732 43.7739 138.001 42.4933 137.8H42.5216ZM57.8295 132.6C57.3478 133.114 56.7118 133.486 56.0008 133.67C55.2899 133.853 54.5357 133.841 53.8324 133.634L53.8608 133.64H52.7269V137.8H49.8921V125.84H53.8608C55.2868 125.695 56.7176 126.071 57.8436 126.887L57.8295 126.88C58.9634 127.4 58.9634 128.44 58.9634 129.48C58.8358 130.65 58.4319 131.71 57.8082 132.633L57.8295 132.6ZM72.5703 131.56C72.6856 132.317 72.6274 133.087 72.3994 133.821C72.1714 134.556 71.7787 135.239 71.2463 135.826C70.7139 136.414 70.0537 136.893 69.3078 137.233C68.562 137.573 67.7469 137.766 66.915 137.8H65.7669C64.1174 137.786 62.5397 137.179 61.3733 136.11C60.2069 135.04 59.5451 133.593 59.5303 132.08V131.56C59.4046 130.052 59.9227 128.558 60.9752 127.394C62.0278 126.23 63.5325 125.486 65.1716 125.32H65.7952C67.3473 125.32 68.8436 125.851 69.9916 126.809C71.1397 127.767 71.857 129.083 72.0034 130.501V130.527L72.5703 131.56ZM81.0747 137.8C80.5077 136.76 80.5077 136.24 79.9408 135.2C79.3738 133.64 78.8069 133.12 77.673 133.12H76.539V137.8H73.7043V125.84H77.673C78.3788 125.729 79.103 125.765 79.7914 125.946C80.4798 126.127 81.1147 126.449 81.6487 126.887L81.6416 126.88C82.3536 127.588 82.7572 128.511 82.7756 129.474C82.7567 130.133 82.5361 130.782 82.1389 131.332C81.7417 131.883 81.1839 132.32 80.529 132.594L80.5077 132.6C81.6416 133.12 81.6416 133.64 82.2086 134.68C82.3362 135.85 82.7401 136.91 83.3638 137.833L83.3425 137.8H81.0747ZM95.2486 128.44H91.8469V137.8H89.0121V128.44H85.0434V126.36H94.6816V128.44H95.2486Z" fill="#B4CAE4"/>
<path d="M27.7811 92.04C26.7141 87.8879 25.9681 83.6719 25.5487 79.4235L25.5133 79.04H15.875C16.6254 85.298 19.1954 91.256 23.3163 96.291L23.2454 96.2C24.4786 94.5555 25.9881 93.171 27.7244 92.0725L27.7811 92.04ZM47.0576 79.56H31.7498C31.7569 83.2715 32.3805 86.853 33.5286 90.2135L33.4507 89.96C37.7818 88.6017 42.2774 87.733 46.8379 87.373L47.0576 87.36V79.56ZM47.0576 45.24C40.8211 46.28 36.8524 52.52 35.1515 57.2C38.6312 58.474 42.6637 59.3905 46.8663 59.787L47.0576 59.8V45.24ZM47.0576 73.84V65.52C42.2969 65.4096 37.5985 64.4998 33.1955 62.8355L33.4507 62.92C32.318 66.4646 31.7452 70.1398 31.7498 73.8335L47.0576 73.84Z" fill="#B4CAE4"/>
</g>
<defs>
<clipPath id="clip0_144_120">
<rect width="163" height="156" fill="white"/>
</clipPath>
</defs>
</svg>
