<svg width="29" height="35" viewBox="0 0 29 35" fill="none" xmlns="http://www.w3.org/2000/svg">
<path d="M1.17107 0H27.8289C28.4772 0 29 0.632376 29 1.41003V33.59C29 34.3705 28.4748 35 27.8289 35C27.5048 35 27.2115 34.8405 26.9985 34.5841L14.4692 21.5891L1.93523 34.6553C1.44787 35.1624 0.709741 35.0997 0.286262 34.5129C0.0946321 34.248 0.0023658 33.9176 0.0023658 33.5928H0V1.41003C0 0.632376 0.525208 0 1.17107 0ZM26.6579 2.8229H2.34451V30.5107L13.6933 18.6779C14.1238 18.2164 14.7839 18.1993 15.2334 18.6665L26.6602 30.5192V2.8229H26.6579Z" fill="white"/>
</svg>
