<svg width="50" height="50" viewBox="0 0 50 50" fill="none" xmlns="http://www.w3.org/2000/svg">
<g id="User Icon">
<path id="icon/social/person_24px" fill-rule="evenodd" clip-rule="evenodd" d="M24.9995 8.33391C20.3953 8.33391 16.6661 12.0631 16.6661 16.6672C16.6661 21.2714 20.3953 25.0006 24.9995 25.0006C29.6036 25.0006 33.3328 21.2714 33.3328 16.6672C33.3328 12.0631 29.6036 8.33391 24.9995 8.33391ZM29.1668 16.6674C29.1668 14.3757 27.2918 12.5007 25.0002 12.5007C22.7085 12.5007 20.8335 14.3757 20.8335 16.6674C20.8335 18.959 22.7085 20.834 25.0002 20.834C27.2918 20.834 29.1668 18.959 29.1668 16.6674ZM37.4997 37.5007C37.0831 36.0215 30.6247 33.334 24.9997 33.334C19.3956 33.334 12.9789 36.0007 12.4997 37.5007H37.4997ZM8.33324 37.5007C8.33324 31.959 19.4374 29.1674 24.9999 29.1674C30.5624 29.1674 41.6666 31.959 41.6666 37.5007V41.6674H8.33324V37.5007Z" fill="white"/>
</g>
</svg>
